<?xml version="1.0" encoding="utf-8"?>
<!-- Generator: Adobe Illustrator 23.0.0, SVG Export Plug-In . SVG Version: 6.00 Build 0)  -->
<svg version="1.1" id="Layer_1" xmlns="http://www.w3.org/2000/svg" xmlns:xlink="http://www.w3.org/1999/xlink" x="0px" y="0px"
	 viewBox="0 0 353.98 50.61" style="enable-background:new 0 0 353.98 50.61;" xml:space="preserve">
<style type="text/css">
	.st0{fill:#27235D;}
	.st1{fill:#FBCD11;}
	.st2{fill:#F29F23;}
	.st3{fill:#939799;}
	.st4{clip-path:url(#SVGID_2_);fill:#F29F23;}
	.st5{clip-path:url(#SVGID_2_);fill:#FBCD11;}
	.st6{fill:#252258;}
	.st7{opacity:0.5;fill:#F29F23;}
	.st8{opacity:0.5;}
	.st9{fill:#414042;}
	.st10{fill:none;stroke:#999999;stroke-miterlimit:10;}
	.st11{fill:none;stroke:#000000;stroke-miterlimit:10;}
	.st12{clip-path:url(#SVGID_4_);fill:url(#SVGID_5_);}
	.st13{fill:#8DC63F;}
	.st14{fill:#009444;}
	.st15{fill:url(#SVGID_6_);}
	.st16{fill:url(#SVGID_7_);}
	.st17{clip-path:url(#SVGID_9_);fill:url(#SVGID_10_);}
</style>
<g>
	<g>
		<path class="st0" d="M46.3,0.06v50.5H34.18V32.06H12.12v18.49H0V0.06h12.12v21.13h22.06V0.06H46.3z"/>
		<path class="st0" d="M95.4,43.64H70.93l-3.42,6.91H53.83l25.09-50.5h9.17l24.16,50.5H98.82L95.4,43.64z M90.66,33.77l-7.54-16.24
			l-7.15,16.24H90.66z"/>
		<path class="st0" d="M147.14,50.56l-8.31-12.59h-8.86v12.59h-12.35V0.06c0,0,18.57,0,24.55,0c10.33,0,18.1,8.86,18.1,19.89
			c0,7.3-3.65,12.51-9.01,15.38l11.11,15.23H147.14z M129.97,26.86h10.26c4.12,0,7.54-2.72,7.54-6.91c0-4.12-3.34-7.46-7.46-7.46
			h-10.33V26.86z"/>
		<path class="st0" d="M244.69,0.06v50.5h-12.12V0.06H244.69z"/>
		<path class="st0" d="M299.26,40.31c-4.57,6.27-12.02,10.25-20.35,10.25c-13.93,0-25.21-11.28-25.21-25.21s11.28-25.29,25.21-25.29
			c8.33,0,15.78,4.05,20.35,10.32l-8.7,5.6c-3.24-2.95-6.86-4.87-11.65-4.87c-7.81,0-14.15,6.41-14.15,14.23
			c0,7.82,6.34,14.15,14.15,14.15c4.79,0,7.81-1.55,11.65-4.79L299.26,40.31z"/>
		<path class="st2" d="M353.98,25.31c0,11.11-9.01,20.12-20.12,20.12s-20.12-9.01-20.12-20.12s9.01-20.12,20.12-20.12
			S353.98,14.19,353.98,25.31z M327.51,18.17v13.51h3.24V18.17H327.51z M340.31,18.17h-6.4v13.51h6.4c3.74,0,6.76-3.04,6.76-6.78
			C347.06,21.18,344.45,18.17,340.31,18.17z M340.62,28.44h-3.47v-7.03c0,0,2.6,0,3.47,0c1.7,0,3.2,1.47,3.2,3.49
			C343.82,26.92,342.3,28.37,340.62,28.44z M322.88,28.02c-1.22,0-2.21,0.99-2.21,2.21s0.99,2.21,2.21,2.21s2.21-0.99,2.21-2.21
			S324.1,28.02,322.88,28.02z"/>
		<g>
			<path class="st2" d="M206.6,50.61L206.6,50.61c-4.89,0-8.46-4.63-7.22-9.36l9.35-35.6c0.86-3.28,3.83-5.57,7.22-5.57h0
				c4.89,0,8.46,4.63,7.22,9.36l-9.35,35.6C212.96,48.32,209.99,50.61,206.6,50.61z"/>
			<path class="st2" d="M175.47,50.52L175.47,50.52c-4.89,0-8.46-4.63-7.22-9.36l9.35-35.6c0.86-3.28,3.83-5.57,7.22-5.57h0
				c4.89,0,8.46,4.63,7.22,9.36l-9.35,35.6C181.83,48.23,178.86,50.52,175.47,50.52z"/>
			<path class="st1" d="M206.15,50.52L206.15,50.52c-2.47,0-4.75-1.35-5.93-3.51l-20.26-36.99C177.48,5.51,180.75,0,185.89,0h0
				c2.47,0,4.75,1.35,5.93,3.51l20.26,36.99C214.55,45.01,211.29,50.52,206.15,50.52z"/>
			<g class="st8">
				<path class="st2" d="M185.38,0.03c-4.84,0.35-7.82,5.62-5.43,9.98L188,24.71l4.03-15.35C193.22,4.81,189.98,0.38,185.38,0.03z"
					/>
			</g>
			<g class="st8">
				<path class="st2" d="M206.38,50.6c5.03-0.14,8.18-5.55,5.74-10l-8.49-15.5l-4.24,16.16C198.16,45.91,201.61,50.46,206.38,50.6z"
					/>
			</g>
		</g>
	</g>
</g>
<g id="Layer_2">
</g>
</svg>
